<svg xmlns="http://www.w3.org/2000/svg" xml:space="preserve" width="800" height="300"><defs><linearGradient id="a" x1="429.5" x2="429.5" y1="10" y2="30" gradientUnits="userSpaceOnUse"><stop offset="0" stop-color="#E0EBE8"/><stop offset="1" stop-color="#FFF"/></linearGradient><linearGradient id="b" x1="228" x2="228" y1="86" y2="112" gradientUnits="userSpaceOnUse"><stop offset="0" stop-color="#E0EBE8"/><stop offset="1" stop-color="#FFF"/></linearGradient></defs><path fill="#FFF" d="M65 83h4v144h-4z"/><path fill="#F4A0A0" d="m28.5 108.83 41-15.33v32l-41-16.67Zm0 0"/><path fill="#58D6B9" d="m28.5 88.83 41-15.33v32l-41-16.67Zm0 0"/><path fill="#FFF" d="M725 83h4v144h-4z"/><path fill="#58D6B9" d="m688.5 108.83 41-15.33v32l-41-16.67Zm0 0"/><path fill="#F4A0A0" d="m688.5 88.83 41-15.33v32l-41-16.67Zm0 0"/><path fill="#CA8A65" d="M411 37h23v23h-23z"/><path fill="#C6F7FB" d="M414 41h6v6h-6zM426 41h6v6h-6zM414 51h6v6h-6z"/><path fill="#70595E" d="M426 51h6v9h-6zM422.5 25.38l15.44 12.41h-30.88l15.44-12.41Zm0 0"/><path fill="url(#a)" d="M427.01 19.3c.09-5.51 1.29-9.66 2.66-9.28 1.38.39 2.42 5.17 2.32 10.68-.09 5.51-1.29 9.66-2.66 9.28-1.31-.37-2.33-4.73-2.33-9.98"/><path fill="#70595E" d="M426 26h6.5v9H426z"/><path fill="#3E9C87" d="M212 231c0-98.86 84.62-179 189-179s189 80.14 189 179H401Zm0 0"/><path fill="#FFF" d="M333 383c0-123.71 104.09-224 232.5-224S798 259.29 798 383H565.5Zm0 0"/><path fill="#4AB19A" d="M3 368c0-129.79 113.94-235 254.5-235S512 238.21 512 368H257.5Zm0 0"/><ellipse cx="104" cy="215.5" fill="#439F8A" rx="12" ry="5.5"/><path fill="#F6D546" d="m89.5 201.5 13.38-56 15.62 56h-29Zm0 0"/><path fill="#AF946C" d="M103 178h2v37h-2z"/><path fill="#AF946C" d="m103.5 187.34 5.73-5.84 1.27 1.3-6.36 6.48-.43.22-.21-2.16ZM103.5 195.34l5.73-5.84 1.27 1.3-6.36 6.48-.43.22-.21-2.16ZM104.5 191.34l-5.73-5.84-1.27 1.3 6.36 6.48.43.22.21-2.16Zm0 0"/><ellipse cx="178.25" cy="187" fill="#439F8A" rx="10.25" ry="4"/><path fill="#F4A0A0" d="m163.5 175.3 13.38-50.85 15.62 50.85h-29Zm0 0"/><path fill="#AF946C" d="M177 157h2v30h-2z"/><path fill="#AF946C" d="m177.5 162.44 5.73-5.3 1.27 1.18-6.36 5.89-.43.19-.21-1.96ZM177.5 169.7l5.73-5.3 1.27 1.18-6.36 5.89-.43.19-.21-1.96ZM178.5 166.07l-5.73-5.3-1.27 1.18 6.36 5.89.43.19.21-1.96Zm0 0"/><ellipse cx="602.75" cy="195" fill="#E0EBE8" rx="10.75" ry="4"/><path fill="#F4A0A0" d="m588.5 183.3 13.38-50.85 15.62 50.85h-29Zm0 0"/><path fill="#AF946C" d="M602 165h2v30h-2z"/><path fill="#AF946C" d="m602.5 170.44 5.73-5.3 1.27 1.18-6.36 5.89-.43.19-.21-1.96ZM602.5 177.7l5.73-5.3 1.27 1.18-6.36 5.89-.43.19-.21-1.96ZM603.5 174.07l-5.73-5.3-1.27 1.18 6.36 5.89.43.19.21-1.96Zm0 0"/><ellipse cx="679" cy="211" fill="#E0EBE8" rx="10" ry="4"/><path fill="#F6D546" d="m664.5 197.5 13.38-56 15.62 56h-29Zm0 0"/><path fill="#AF946C" d="M678 174h2v37h-2z"/><path fill="#AF946C" d="m678.5 183.34 5.73-5.84 1.27 1.3-6.36 6.48-.43.22-.21-2.16ZM678.5 191.34l5.73-5.84 1.27 1.3-6.36 6.48-.43.22-.21-2.16ZM679.5 187.34l-5.73-5.84-1.27 1.3 6.36 6.48.43.22.21-2.16Zm0 0"/><ellipse cx="645" cy="249" fill="#E0EBE8" rx="12" ry="4"/><path fill="#217D68" d="m627.5 238.51 16.38-62.02L663 238.51h-35.5Zm0 0"/><path fill="#AF946C" d="M644 216h2v33h-2z"/><path fill="#AF946C" d="m644.5 222.75 5.73-5.76 1.27 1.28-6.36 6.41-.43.21-.21-2.14ZM644.5 230.65l5.73-5.76 1.27 1.28-6.36 6.41-.43.21-.21-2.14ZM645.5 226.7l-5.73-5.76-1.27 1.28 6.36 6.41.43.21.21-2.14Zm0 0"/><ellipse cx="143" cy="199.5" fill="#439F8A" rx="12" ry="5.5"/><path fill="#217D68" d="m127.5 185.5 14.77-69 17.23 69h-32Zm0 0"/><path fill="#AF946C" d="M142 162h2v37h-2z"/><path fill="#AF946C" d="m142.5 171.34 5.73-5.84 1.27 1.3-6.36 6.48-.43.22-.21-2.16ZM142.5 179.34l5.73-5.84 1.27 1.3-6.36 6.48-.43.22-.21-2.16ZM143.5 175.34l-5.73-5.84-1.27 1.3 6.36 6.48.43.22.21-2.16Zm0 0"/><ellipse cx="349" cy="90.5" fill="#378C79" rx="12" ry="5.5"/><path fill="#8FD182" d="m333.5 76.5 14.77-69 17.23 69h-32Zm0 0"/><path fill="#AF946C" d="M348 53h2v37h-2z"/><path fill="#AF946C" d="m348.5 62.34 5.73-5.84 1.27 1.3-6.36 6.48-.43.22-.21-2.16ZM348.5 70.34l5.73-5.84 1.27 1.3-6.36 6.48-.43.22-.21-2.16ZM349.5 66.34l-5.73-5.84-1.27 1.3 6.36 6.48.43.22.21-2.16Zm0 0"/><ellipse cx="492.25" cy="104" fill="#378C79" rx="10.25" ry="4"/><path fill="#217D68" d="m477.5 92.3 13.38-50.85L506.5 92.3h-29Zm0 0"/><path fill="#AF946C" d="M491 74h2v30h-2z"/><path fill="#AF946C" d="m491.5 79.44 5.73-5.3 1.27 1.18-6.36 5.89-.43.19-.21-1.96ZM491.5 86.7l5.73-5.3 1.27 1.18-6.36 5.89-.43.19-.21-1.96ZM492.5 83.07l-5.73-5.3-1.27 1.18 6.36 5.89.43.19.21-1.96Zm0 0"/><path fill="#6DA0AB" d="M204 121h30v30h-30z"/><path fill="#C6F7FB" d="M208 126h8v8h-8zM223 126h8v8h-8zM208 139h8v8h-8z"/><path fill="#70595E" d="M223 139h8v12h-8zM219 106l19.92 16.12h-39.84L219 106Zm0 0"/><path fill="url(#b)" d="M225.01 98.09c.11-7.16 1.55-12.56 3.2-12.06 1.65.5 2.9 6.71 2.78 13.88-.11 7.16-1.55 12.56-3.2 12.06-1.57-.48-2.79-6.14-2.79-12.97"/><path fill="#70595E" d="M224 107h7.5v12H224z"/></svg>